<svg width="30" height="40" viewBox="0 0 30 40" fill="none" xmlns="http://www.w3.org/2000/svg">
<g id="attachment_24px">
<path id="icon/file/attachment_24px" d="M20 11.2461L20 28.8794C20 32.3627 18.0875 35.4627 15.4875 35.7961C12.5125 36.1794 10 33.0627 10 29.1627L10 8.56272C10 6.37939 11.175 4.39606 12.8 4.17939C14.675 3.92939 16.25 5.87939 16.25 8.32939L16.25 25.8294C16.25 26.7461 15.6875 27.4961 15 27.4961C14.3125 27.4961 13.75 26.7461 13.75 25.8294L13.75 11.2461C13.75 10.5627 13.325 9.99606 12.8125 9.99606C12.3 9.99606 11.875 10.5627 11.875 11.2461L11.875 25.5961C11.875 27.7794 13.05 29.7627 14.675 29.9794C16.55 30.2294 18.125 28.2794 18.125 25.8294L18.125 8.61272C18.125 5.12939 16.2125 2.02939 13.6125 1.69606C10.625 1.31273 8.125 4.42939 8.125 8.32939L8.125 28.7794C8.125 33.5627 10.75 37.8461 14.325 38.2961C18.4375 38.7961 21.875 34.5294 21.875 29.1627L21.875 11.2461C21.875 10.5627 21.45 9.99606 20.9375 9.99606C20.425 9.99606 20 10.5627 20 11.2461Z" fill="black" fill-opacity="0.54"/>
</g>
</svg>
