<svg width="40" height="40" viewBox="0 0 40 40" fill="none" xmlns="http://www.w3.org/2000/svg">
<g id="link_24px">
<path id="icon/content/link_24px" fill-rule="evenodd" clip-rule="evenodd" d="M11.6663 25.0003H16.6663C17.583 25.0003 18.333 25.7503 18.333 26.667C18.333 27.5837 17.583 28.3337 16.6663 28.3337H11.6663C7.06634 28.3337 3.33301 24.6003 3.33301 20.0003C3.33301 15.4003 7.06634 11.667 11.6663 11.667H16.6663C17.583 11.667 18.333 12.417 18.333 13.3337C18.333 14.2503 17.583 15.0003 16.6663 15.0003H11.6663C8.91634 15.0003 6.66634 17.2503 6.66634 20.0003C6.66634 22.7503 8.91634 25.0003 11.6663 25.0003ZM28.333 11.667H23.333C22.4163 11.667 21.6663 12.417 21.6663 13.3337C21.6663 14.2503 22.4163 15.0003 23.333 15.0003H28.333C31.083 15.0003 33.333 17.2503 33.333 20.0003C33.333 22.7503 31.083 25.0003 28.333 25.0003H23.333C22.4163 25.0003 21.6663 25.7503 21.6663 26.667C21.6663 27.5837 22.4163 28.3337 23.333 28.3337H28.333C32.933 28.3337 36.6663 24.6003 36.6663 20.0003C36.6663 15.4003 32.933 11.667 28.333 11.667ZM13.333 20.0003C13.333 20.917 14.083 21.667 14.9997 21.667H24.9997C25.9163 21.667 26.6663 20.917 26.6663 20.0003C26.6663 19.0837 25.9163 18.3337 24.9997 18.3337H14.9997C14.083 18.3337 13.333 19.0837 13.333 20.0003Z" fill="black" fill-opacity="0.54"/>
</g>
</svg>
