<svg width="40" height="40" viewBox="0 0 40 40" fill="none" xmlns="http://www.w3.org/2000/svg">
<g id="more_vert_24px">
<path id="icon/navigation/more_vert_24px" fill-rule="evenodd" clip-rule="evenodd" d="M20.0003 13.3337C21.8337 13.3337 23.3337 11.8337 23.3337 10.0003C23.3337 8.16699 21.8337 6.66699 20.0003 6.66699C18.167 6.66699 16.667 8.16699 16.667 10.0003C16.667 11.8337 18.167 13.3337 20.0003 13.3337ZM20.0003 16.667C18.167 16.667 16.667 18.167 16.667 20.0003C16.667 21.8337 18.167 23.3337 20.0003 23.3337C21.8337 23.3337 23.3337 21.8337 23.3337 20.0003C23.3337 18.167 21.8337 16.667 20.0003 16.667ZM16.667 30.0003C16.667 28.167 18.167 26.667 20.0003 26.667C21.8337 26.667 23.3337 28.167 23.3337 30.0003C23.3337 31.8337 21.8337 33.3337 20.0003 33.3337C18.167 33.3337 16.667 31.8337 16.667 30.0003Z" fill="black" fill-opacity="0.54"/>
</g>
</svg>
