<svg width="40" height="40" viewBox="0 0 40 40" fill="none" xmlns="http://www.w3.org/2000/svg">
<g id="photo_24px">
<path id="icon/image/photo_24px" fill-rule="evenodd" clip-rule="evenodd" d="M35 8.33333V31.6667C35 33.5 33.5 35 31.6667 35H8.33333C6.5 35 5 33.5 5 31.6667V8.33333C5 6.5 6.5 5 8.33333 5H31.6667C33.5 5 35 6.5 35 8.33333ZM18.3336 27.5166L14.8336 23.3C14.4836 22.8833 13.8503 22.9 13.5336 23.3333L9.3836 28.6666C8.95027 29.2166 9.3336 30.0166 10.0336 30.0166H30.0169C30.7003 30.0166 31.1003 29.2333 30.6836 28.6833L24.8336 20.8833C24.5003 20.4333 23.8336 20.4333 23.5003 20.8666L18.3336 27.5166Z" fill="black" fill-opacity="0.54"/>
</g>
</svg>
