<svg width="52" height="52" viewBox="0 0 52 52" fill="none" xmlns="http://www.w3.org/2000/svg">
<g id="dehaze_24px">
<path id="icon/image/dehaze_24px" fill-rule="evenodd" clip-rule="evenodd" d="M6.50004 17.3333C5.30837 17.3333 4.33337 16.3583 4.33337 15.1667C4.33337 13.975 5.30837 13 6.50004 13H45.5C46.6917 13 47.6667 13.975 47.6667 15.1667C47.6667 16.3583 46.6917 17.3333 45.5 17.3333H6.50004ZM4.33337 26C4.33337 27.1917 5.30837 28.1667 6.50004 28.1667H45.5C46.6917 28.1667 47.6667 27.1917 47.6667 26C47.6667 24.8083 46.6917 23.8333 45.5 23.8333H6.50004C5.30837 23.8333 4.33337 24.8083 4.33337 26ZM4.33337 36.8333C4.33337 38.025 5.30837 39 6.50004 39H45.5C46.6917 39 47.6667 38.025 47.6667 36.8333C47.6667 35.6417 46.6917 34.6667 45.5 34.6667H6.50004C5.30837 34.6667 4.33337 35.6417 4.33337 36.8333Z" fill="#F8941E"/>
</g>
</svg>
