<svg width="54" height="54" viewBox="0 0 54 54" fill="none" xmlns="http://www.w3.org/2000/svg">
<g id="account_circle_24px">
<path id="icon/action/account_circle_24px" fill-rule="evenodd" clip-rule="evenodd" d="M26.9999 4.5C14.5799 4.5 4.49988 14.58 4.49988 27C4.49988 39.42 14.5799 49.5 26.9999 49.5C39.4199 49.5 49.4999 39.42 49.4999 27C49.4999 14.58 39.4199 4.5 26.9999 4.5ZM27 11.25C30.735 11.25 33.75 14.265 33.75 18C33.75 21.735 30.735 24.75 27 24.75C23.265 24.75 20.25 21.735 20.25 18C20.25 14.265 23.265 11.25 27 11.25ZM13.5 35.9549C16.4025 40.3199 21.375 43.1999 27 43.1999C32.625 43.1999 37.5975 40.3199 40.5 35.9549C40.4325 31.4774 31.4775 29.0249 27 29.0249C22.5 29.0249 13.5675 31.4774 13.5 35.9549Z" fill="black" fill-opacity="0.54"/>
</g>
</svg>
