<svg width="40" height="40" viewBox="0 0 40 40" fill="none" xmlns="http://www.w3.org/2000/svg">
<g id="notifications_24px">
<path id="icon/social/notifications_24px" fill-rule="evenodd" clip-rule="evenodd" d="M30.002 17.9167V26.25L32.152 28.4C33.202 29.45 32.452 31.25 30.9687 31.25H9.01871C7.53537 31.25 6.80204 29.45 7.85204 28.4L10.002 26.25V17.9167C10.002 12.7833 12.7187 8.51667 17.502 7.38333V6.25C17.502 4.86667 18.6187 3.75 20.002 3.75C21.3854 3.75 22.502 4.86667 22.502 6.25V7.38333C27.2687 8.51667 30.002 12.8 30.002 17.9167ZM23.3353 32.9167C23.3353 34.75 21.8353 36.25 20.002 36.25C18.152 36.25 16.6686 34.75 16.6686 32.9167H23.3353Z" fill="black" fill-opacity="0.54"/>
</g>
</svg>
